<svg xmlns="http://www.w3.org/2000/svg" viewBox="0 0 720 480">
  <rect width="720" height="480" fill="#f8f7f5"/>
  <rect x="90" y="80" width="540" height="320" rx="22" fill="#fff" stroke="#d9d6cf" stroke-width="6"/>
  <rect x="130" y="120" width="180" height="220" rx="14" fill="#ece7df"/>
  <rect x="340" y="120" width="250" height="28" rx="8" fill="#d9d6cf"/>
  <rect x="340" y="170" width="210" height="18" rx="8" fill="#6b8e6f" fill-opacity=".7"/>
  <rect x="340" y="208" width="170" height="18" rx="8" fill="#6b8e6f" fill-opacity=".45"/>
  <rect x="340" y="246" width="200" height="18" rx="8" fill="#6b8e6f" fill-opacity=".45"/>
  <path d="M180 310c24-70 37-97 64-138 32 18 48 44 51 76-2 38-34 74-80 100-18-10-28-22-35-38Z" fill="#4a7c59"/>
  <path d="M236 170c0 62-14 104-47 138" stroke="#1f2328" stroke-width="5" stroke-linecap="round"/>
</svg>
